<svg width="125" height="125" viewBox="0 0 125 125" fill="none" xmlns="http://www.w3.org/2000/svg">
<path d="M124.395 62.1975C124.395 96.5482 96.5482 124.395 62.1975 124.395C27.8468 124.395 0 96.5482 0 62.1975C0 27.8468 27.8468 0 62.1975 0C96.5482 0 124.395 27.8468 124.395 62.1975ZM17.3134 62.1975C17.3134 86.9863 37.4087 107.082 62.1975 107.082C86.9863 107.082 107.082 86.9863 107.082 62.1975C107.082 37.4087 86.9863 17.3134 62.1975 17.3134C37.4087 17.3134 17.3134 37.4087 17.3134 62.1975Z" fill="#CE2E0A"/>
<path d="M63.0594 88.9091C55.749 90.6669 47.7998 89.7634 41.3601 85.9055C34.9205 82.0477 30.2762 75.8223 28.4376 68.5835C26.599 61.3448 27.7148 53.6784 31.5423 47.2519C35.3698 40.8254 41.5993 36.1588 48.8758 34.2672C56.1522 32.3757 63.8869 33.4121 70.3974 37.1511C76.9078 40.8901 81.6673 47.0292 83.6405 54.233C85.6137 61.4367 84.6409 69.1223 80.9338 75.618C77.2267 82.1136 70.2994 86.8843 63.0594 88.9091L55.293 54.2568C57.2911 52.9203 56.8515 52.9479 57.2112 52.591C58.0825 51.0644 57.6908 51.7581 58.1703 50.3303C58.49 48.5178 58.1302 45.9272 56.1322 43.6665C54.6021 42.7877 52.2075 42.27 50.4973 42.7146C48.7872 43.1592 47.0808 44.0599 46.1813 45.5702C45.2817 47.0806 45.2696 48.9853 45.7017 50.6866C46.7407 52.4714 47.62 53.7808 49.8979 54.6131C52.8952 54.9707 52.6153 55.0383 55.293 54.2568L63.0594 88.9091Z" fill="#CE2E0A"/>
<rect width="45" height="17" transform="translate(73 54)" fill="#CE2E0A"/>
</svg>
