<svg width="1591" height="240" viewBox="0 0 1591 240" fill="none" xmlns="http://www.w3.org/2000/svg">
<path d="M355.872 145.872C356.384 145.872 356.896 145.979 357.408 146.192C357.92 146.363 358.411 146.683 358.88 147.152L367.456 156.176C363.701 161.083 358.987 164.795 353.312 167.312C347.68 169.787 341.003 171.024 333.28 171.024C326.197 171.024 319.84 169.829 314.208 167.44C308.619 165.008 303.861 161.68 299.936 157.456C296.053 153.189 293.067 148.155 290.976 142.352C288.885 136.507 287.84 130.171 287.84 123.344C287.84 116.389 288.971 110.011 291.232 104.208C293.493 98.3627 296.672 93.328 300.768 89.104C304.864 84.88 309.771 81.5947 315.488 79.248C321.205 76.9013 327.499 75.728 334.368 75.728C337.867 75.728 341.152 76.048 344.224 76.688C347.339 77.2853 350.24 78.1387 352.928 79.248C355.616 80.3147 358.091 81.616 360.352 83.152C362.613 84.688 364.619 86.352 366.368 88.144L359.072 97.936C358.603 98.5333 358.048 99.088 357.408 99.6C356.768 100.069 355.872 100.304 354.72 100.304C353.952 100.304 353.227 100.133 352.544 99.792C351.861 99.4507 351.136 99.0453 350.368 98.576C349.6 98.064 348.747 97.5307 347.808 96.976C346.912 96.3787 345.824 95.8453 344.544 95.376C343.307 94.864 341.835 94.4373 340.128 94.096C338.464 93.7547 336.501 93.584 334.24 93.584C330.656 93.584 327.371 94.2453 324.384 95.568C321.44 96.8907 318.88 98.832 316.704 101.392C314.571 103.909 312.907 107.024 311.712 110.736C310.56 114.405 309.984 118.608 309.984 123.344C309.984 128.123 310.624 132.368 311.904 136.08C313.227 139.792 314.997 142.928 317.216 145.488C319.477 148.005 322.101 149.925 325.088 151.248C328.075 152.571 331.275 153.232 334.688 153.232C336.651 153.232 338.443 153.147 340.064 152.976C341.685 152.763 343.2 152.443 344.608 152.016C346.016 151.547 347.339 150.949 348.576 150.224C349.813 149.456 351.072 148.496 352.352 147.344C352.864 146.917 353.419 146.576 354.016 146.32C354.613 146.021 355.232 145.872 355.872 145.872ZM394.883 103.632V170H375.043V103.632H394.883ZM396.931 85.456C396.931 87.0347 396.611 88.528 395.971 89.936C395.331 91.3013 394.456 92.5173 393.347 93.584C392.238 94.608 390.936 95.44 389.443 96.08C387.992 96.6773 386.435 96.976 384.771 96.976C383.15 96.976 381.635 96.6773 380.227 96.08C378.819 95.44 377.56 94.608 376.451 93.584C375.384 92.5173 374.531 91.3013 373.891 89.936C373.294 88.528 372.995 87.0347 372.995 85.456C372.995 83.8347 373.294 82.32 373.891 80.912C374.531 79.504 375.384 78.2667 376.451 77.2C377.56 76.1333 378.819 75.3013 380.227 74.704C381.635 74.1067 383.15 73.808 384.771 73.808C386.435 73.808 387.992 74.1067 389.443 74.704C390.936 75.3013 392.238 76.1333 393.347 77.2C394.456 78.2667 395.331 79.504 395.971 80.912C396.611 82.32 396.931 83.8347 396.931 85.456ZM480.464 170H460.624V117.328H432.848V150.288C432.848 151.824 433.211 153.104 433.936 154.128C434.704 155.109 435.792 155.6 437.2 155.6C437.925 155.6 438.523 155.536 438.992 155.408C439.504 155.237 439.931 155.067 440.272 154.896C440.656 154.683 440.997 154.512 441.296 154.384C441.637 154.213 442.021 154.128 442.448 154.128C443.045 154.128 443.515 154.277 443.856 154.576C444.24 154.832 444.624 155.259 445.008 155.856L451.024 165.264C448.464 167.184 445.584 168.635 442.384 169.616C439.184 170.555 435.877 171.024 432.464 171.024C429.307 171.024 426.512 170.576 424.08 169.68C421.691 168.741 419.664 167.44 418 165.776C416.379 164.069 415.141 162.021 414.288 159.632C413.435 157.243 413.008 154.576 413.008 151.632V117.328H407.376C406.352 117.328 405.477 117.008 404.752 116.368C404.027 115.685 403.664 114.704 403.664 113.424V105.68L414.224 103.568L418.128 87.44C418.64 85.392 420.091 84.368 422.48 84.368H432.848V103.76H480.464V170ZM483.216 85.392C483.216 86.9707 482.896 88.464 482.256 89.872C481.616 91.28 480.741 92.5173 479.632 93.584C478.523 94.608 477.221 95.4187 475.728 96.016C474.277 96.6133 472.72 96.912 471.056 96.912C469.435 96.912 467.92 96.6133 466.512 96.016C465.104 95.4187 463.845 94.608 462.736 93.584C461.669 92.5173 460.816 91.28 460.176 89.872C459.579 88.464 459.28 86.9707 459.28 85.392C459.28 83.8133 459.579 82.32 460.176 80.912C460.816 79.4613 461.669 78.224 462.736 77.2C463.845 76.1333 465.104 75.3013 466.512 74.704C467.92 74.064 469.435 73.744 471.056 73.744C472.72 73.744 474.277 74.064 475.728 74.704C477.221 75.3013 478.523 76.1333 479.632 77.2C480.741 78.224 481.616 79.4613 482.256 80.912C482.896 82.32 483.216 83.8133 483.216 85.392ZM543.689 111.568C543.689 112.933 543.454 114.256 542.985 115.536C542.516 116.816 541.897 117.861 541.129 118.672L513.417 155.28H543.049V170H490.569V161.936C490.569 161.125 490.782 160.101 491.209 158.864C491.636 157.627 492.276 156.475 493.129 155.408L521.097 118.352H492.361V103.632H543.689V111.568ZM594.125 128.848C594.125 127.269 593.912 125.733 593.485 124.24C593.101 122.747 592.44 121.424 591.501 120.272C590.605 119.077 589.41 118.117 587.917 117.392C586.424 116.667 584.61 116.304 582.477 116.304C578.722 116.304 575.778 117.392 573.645 119.568C571.512 121.701 570.104 124.795 569.421 128.848H594.125ZM569.165 140.368C569.805 145.915 571.49 149.947 574.221 152.464C576.952 154.939 580.472 156.176 584.781 156.176C587.085 156.176 589.069 155.899 590.733 155.344C592.397 154.789 593.869 154.171 595.149 153.488C596.472 152.805 597.666 152.187 598.733 151.632C599.842 151.077 600.994 150.8 602.189 150.8C603.768 150.8 604.962 151.376 605.773 152.528L611.533 159.632C609.485 161.979 607.266 163.899 604.877 165.392C602.53 166.843 600.098 167.995 597.581 168.848C595.106 169.659 592.61 170.213 590.093 170.512C587.618 170.853 585.25 171.024 582.989 171.024C578.338 171.024 573.965 170.277 569.869 168.784C565.816 167.248 562.253 164.987 559.181 162C556.152 159.013 553.741 155.301 551.949 150.864C550.2 146.427 549.325 141.264 549.325 135.376C549.325 130.939 550.072 126.736 551.565 122.768C553.101 118.8 555.277 115.323 558.093 112.336C560.952 109.349 564.386 106.981 568.397 105.232C572.45 103.483 577.016 102.608 582.093 102.608C586.488 102.608 590.498 103.291 594.125 104.656C597.794 106.021 600.93 108.005 603.533 110.608C606.178 113.211 608.226 116.411 609.677 120.208C611.17 123.963 611.917 128.229 611.917 133.008C611.917 134.501 611.853 135.717 611.725 136.656C611.597 137.595 611.362 138.341 611.021 138.896C610.68 139.451 610.21 139.835 609.613 140.048C609.058 140.261 608.333 140.368 607.437 140.368H569.165ZM640.149 110.8C641.429 109.605 642.752 108.496 644.117 107.472C645.482 106.448 646.933 105.595 648.469 104.912C650.048 104.187 651.733 103.632 653.525 103.248C655.36 102.821 657.344 102.608 659.477 102.608C663.104 102.608 666.304 103.248 669.077 104.528C671.893 105.765 674.261 107.515 676.181 109.776C678.101 111.995 679.552 114.661 680.533 117.776C681.514 120.848 682.005 124.197 682.005 127.824V170H662.165V127.824C662.165 124.581 661.418 122.064 659.925 120.272C658.432 118.437 656.234 117.52 653.333 117.52C651.157 117.52 649.109 117.989 647.189 118.928C645.312 119.824 643.477 121.061 641.685 122.64V170H621.845V103.632H634.133C636.608 103.632 638.229 104.741 638.997 106.96L640.149 110.8ZM758.872 145.872C759.384 145.872 759.896 145.979 760.408 146.192C760.92 146.363 761.411 146.683 761.88 147.152L770.456 156.176C766.701 161.083 761.987 164.795 756.312 167.312C750.68 169.787 744.003 171.024 736.28 171.024C729.197 171.024 722.84 169.829 717.208 167.44C711.619 165.008 706.861 161.68 702.936 157.456C699.053 153.189 696.067 148.155 693.976 142.352C691.885 136.507 690.84 130.171 690.84 123.344C690.84 116.389 691.971 110.011 694.232 104.208C696.493 98.3627 699.672 93.328 703.768 89.104C707.864 84.88 712.771 81.5947 718.488 79.248C724.205 76.9013 730.499 75.728 737.368 75.728C740.867 75.728 744.152 76.048 747.224 76.688C750.339 77.2853 753.24 78.1387 755.928 79.248C758.616 80.3147 761.091 81.616 763.352 83.152C765.613 84.688 767.619 86.352 769.368 88.144L762.072 97.936C761.603 98.5333 761.048 99.088 760.408 99.6C759.768 100.069 758.872 100.304 757.72 100.304C756.952 100.304 756.227 100.133 755.544 99.792C754.861 99.4507 754.136 99.0453 753.368 98.576C752.6 98.064 751.747 97.5307 750.808 96.976C749.912 96.3787 748.824 95.8453 747.544 95.376C746.307 94.864 744.835 94.4373 743.128 94.096C741.464 93.7547 739.501 93.584 737.24 93.584C733.656 93.584 730.371 94.2453 727.384 95.568C724.44 96.8907 721.88 98.832 719.704 101.392C717.571 103.909 715.907 107.024 714.712 110.736C713.56 114.405 712.984 118.608 712.984 123.344C712.984 128.123 713.624 132.368 714.904 136.08C716.227 139.792 717.997 142.928 720.216 145.488C722.477 148.005 725.101 149.925 728.088 151.248C731.075 152.571 734.275 153.232 737.688 153.232C739.651 153.232 741.443 153.147 743.064 152.976C744.685 152.763 746.2 152.443 747.608 152.016C749.016 151.547 750.339 150.949 751.576 150.224C752.813 149.456 754.072 148.496 755.352 147.344C755.864 146.917 756.419 146.576 757.016 146.32C757.613 146.021 758.232 145.872 758.872 145.872ZM806.812 102.608C811.847 102.608 816.433 103.397 820.572 104.976C824.711 106.555 828.252 108.816 831.196 111.76C834.183 114.704 836.487 118.288 838.108 122.512C839.772 126.693 840.604 131.408 840.604 136.656C840.604 141.947 839.772 146.725 838.108 150.992C836.487 155.216 834.183 158.821 831.196 161.808C828.252 164.752 824.711 167.035 820.572 168.656C816.433 170.235 811.847 171.024 806.812 171.024C801.735 171.024 797.105 170.235 792.924 168.656C788.785 167.035 785.201 164.752 782.172 161.808C779.185 158.821 776.86 155.216 775.196 150.992C773.575 146.725 772.764 141.947 772.764 136.656C772.764 131.408 773.575 126.693 775.196 122.512C776.86 118.288 779.185 114.704 782.172 111.76C785.201 108.816 788.785 106.555 792.924 104.976C797.105 103.397 801.735 102.608 806.812 102.608ZM806.812 156.304C811.377 156.304 814.727 154.704 816.86 151.504C819.036 148.261 820.124 143.355 820.124 136.784C820.124 130.213 819.036 125.328 816.86 122.128C814.727 118.928 811.377 117.328 806.812 117.328C802.119 117.328 798.684 118.928 796.508 122.128C794.332 125.328 793.244 130.213 793.244 136.784C793.244 143.355 794.332 148.261 796.508 151.504C798.684 154.704 802.119 156.304 806.812 156.304ZM869.155 113.872C871.203 110.288 873.55 107.472 876.195 105.424C878.883 103.376 881.955 102.352 885.411 102.352C888.398 102.352 890.83 103.056 892.707 104.464L891.427 119.056C891.214 119.995 890.851 120.635 890.339 120.976C889.87 121.317 889.208 121.488 888.355 121.488C888.014 121.488 887.566 121.467 887.011 121.424C886.456 121.381 885.88 121.339 885.283 121.296C884.686 121.211 884.067 121.147 883.427 121.104C882.83 121.019 882.275 120.976 881.763 120.976C878.862 120.976 876.536 121.744 874.787 123.28C873.08 124.816 871.63 126.949 870.435 129.68V170H850.595V103.632H862.371C863.352 103.632 864.163 103.717 864.803 103.888C865.486 104.059 866.04 104.336 866.467 104.72C866.936 105.061 867.278 105.531 867.491 106.128C867.747 106.725 867.96 107.451 868.131 108.304L869.155 113.872ZM918.03 113.872C920.078 110.288 922.425 107.472 925.07 105.424C927.758 103.376 930.83 102.352 934.286 102.352C937.273 102.352 939.705 103.056 941.582 104.464L940.302 119.056C940.089 119.995 939.726 120.635 939.214 120.976C938.745 121.317 938.083 121.488 937.23 121.488C936.889 121.488 936.441 121.467 935.886 121.424C935.331 121.381 934.755 121.339 934.158 121.296C933.561 121.211 932.942 121.147 932.302 121.104C931.705 121.019 931.15 120.976 930.638 120.976C927.737 120.976 925.411 121.744 923.662 123.28C921.955 124.816 920.505 126.949 919.31 129.68V170H899.47V103.632H911.246C912.227 103.632 913.038 103.717 913.678 103.888C914.361 104.059 914.915 104.336 915.342 104.72C915.811 105.061 916.153 105.531 916.366 106.128C916.622 106.725 916.835 107.451 917.006 108.304L918.03 113.872ZM988.5 128.848C988.5 127.269 988.287 125.733 987.86 124.24C987.476 122.747 986.815 121.424 985.876 120.272C984.98 119.077 983.785 118.117 982.292 117.392C980.799 116.667 978.985 116.304 976.852 116.304C973.097 116.304 970.153 117.392 968.02 119.568C965.887 121.701 964.479 124.795 963.796 128.848H988.5ZM963.54 140.368C964.18 145.915 965.865 149.947 968.596 152.464C971.327 154.939 974.847 156.176 979.156 156.176C981.46 156.176 983.444 155.899 985.108 155.344C986.772 154.789 988.244 154.171 989.524 153.488C990.847 152.805 992.041 152.187 993.108 151.632C994.217 151.077 995.369 150.8 996.564 150.8C998.143 150.8 999.337 151.376 1000.15 152.528L1005.91 159.632C1003.86 161.979 1001.64 163.899 999.252 165.392C996.905 166.843 994.473 167.995 991.956 168.848C989.481 169.659 986.985 170.213 984.468 170.512C981.993 170.853 979.625 171.024 977.364 171.024C972.713 171.024 968.34 170.277 964.244 168.784C960.191 167.248 956.628 164.987 953.556 162C950.527 159.013 948.116 155.301 946.324 150.864C944.575 146.427 943.7 141.264 943.7 135.376C943.7 130.939 944.447 126.736 945.94 122.768C947.476 118.8 949.652 115.323 952.468 112.336C955.327 109.349 958.761 106.981 962.772 105.232C966.825 103.483 971.391 102.608 976.468 102.608C980.863 102.608 984.873 103.291 988.5 104.656C992.169 106.021 995.305 108.005 997.908 110.608C1000.55 113.211 1002.6 116.411 1004.05 120.208C1005.55 123.963 1006.29 128.229 1006.29 133.008C1006.29 134.501 1006.23 135.717 1006.1 136.656C1005.97 137.595 1005.74 138.341 1005.4 138.896C1005.05 139.451 1004.59 139.835 1003.99 140.048C1003.43 140.261 1002.71 140.368 1001.81 140.368H963.54ZM1058.4 118.16C1057.88 118.971 1057.33 119.547 1056.73 119.888C1056.18 120.229 1055.45 120.4 1054.56 120.4C1053.62 120.4 1052.68 120.208 1051.74 119.824C1050.8 119.397 1049.78 118.949 1048.67 118.48C1047.6 118.011 1046.39 117.584 1045.02 117.2C1043.65 116.773 1042.1 116.56 1040.35 116.56C1037.83 116.56 1035.89 117.051 1034.52 118.032C1033.2 118.971 1032.54 120.293 1032.54 122C1032.54 123.237 1032.97 124.261 1033.82 125.072C1034.72 125.883 1035.89 126.608 1037.34 127.248C1038.79 127.845 1040.43 128.421 1042.27 128.976C1044.1 129.531 1045.98 130.149 1047.9 130.832C1049.82 131.515 1051.7 132.325 1053.53 133.264C1055.37 134.16 1057.01 135.291 1058.46 136.656C1059.91 137.979 1061.06 139.6 1061.92 141.52C1062.81 143.44 1063.26 145.744 1063.26 148.432C1063.26 151.717 1062.66 154.747 1061.47 157.52C1060.27 160.293 1058.48 162.683 1056.09 164.688C1053.75 166.693 1050.82 168.251 1047.32 169.36C1043.87 170.469 1039.88 171.024 1035.36 171.024C1033.09 171.024 1030.83 170.811 1028.57 170.384C1026.31 169.957 1024.11 169.381 1021.98 168.656C1019.89 167.931 1017.95 167.077 1016.16 166.096C1014.36 165.072 1012.83 163.984 1011.55 162.832L1016.16 155.536C1016.67 154.683 1017.31 154.021 1018.08 153.552C1018.89 153.04 1019.91 152.784 1021.15 152.784C1022.3 152.784 1023.32 153.04 1024.22 153.552C1025.16 154.064 1026.16 154.619 1027.23 155.216C1028.29 155.813 1029.53 156.368 1030.94 156.88C1032.39 157.392 1034.2 157.648 1036.38 157.648C1037.92 157.648 1039.22 157.499 1040.28 157.2C1041.35 156.859 1042.2 156.411 1042.84 155.856C1043.48 155.301 1043.95 154.683 1044.25 154C1044.55 153.317 1044.7 152.613 1044.7 151.888C1044.7 150.565 1044.25 149.477 1043.36 148.624C1042.46 147.771 1041.29 147.045 1039.84 146.448C1038.39 145.808 1036.72 145.232 1034.84 144.72C1033.01 144.165 1031.13 143.547 1029.21 142.864C1027.29 142.181 1025.39 141.371 1023.52 140.432C1021.68 139.451 1020.04 138.235 1018.59 136.784C1017.14 135.291 1015.96 133.477 1015.07 131.344C1014.17 129.211 1013.72 126.629 1013.72 123.6C1013.72 120.784 1014.26 118.117 1015.32 115.6C1016.43 113.04 1018.08 110.8 1020.25 108.88C1022.43 106.96 1025.16 105.445 1028.44 104.336C1031.73 103.184 1035.57 102.608 1039.96 102.608C1042.35 102.608 1044.66 102.821 1046.88 103.248C1049.14 103.675 1051.25 104.272 1053.21 105.04C1055.17 105.808 1056.97 106.725 1058.59 107.792C1060.21 108.816 1061.64 109.947 1062.88 111.184L1058.4 118.16ZM1093.06 151.952C1094.55 153.573 1096.17 154.725 1097.92 155.408C1099.67 156.091 1101.51 156.432 1103.43 156.432C1105.26 156.432 1106.95 156.069 1108.48 155.344C1110.02 154.619 1111.34 153.467 1112.45 151.888C1113.6 150.267 1114.5 148.176 1115.14 145.616C1115.78 143.056 1116.1 139.941 1116.1 136.272C1116.1 132.773 1115.84 129.829 1115.33 127.44C1114.82 125.051 1114.09 123.131 1113.16 121.68C1112.26 120.187 1111.17 119.12 1109.89 118.48C1108.61 117.84 1107.18 117.52 1105.6 117.52C1102.7 117.52 1100.31 118.053 1098.44 119.12C1096.56 120.187 1094.77 121.744 1093.06 123.792V151.952ZM1091.84 111.824C1094.45 109.051 1097.39 106.789 1100.68 105.04C1104 103.248 1107.95 102.352 1112.52 102.352C1115.97 102.352 1119.17 103.12 1122.12 104.656C1125.06 106.192 1127.6 108.411 1129.73 111.312C1131.87 114.213 1133.53 117.776 1134.72 122C1135.96 126.181 1136.58 130.939 1136.58 136.272C1136.58 141.264 1135.88 145.872 1134.47 150.096C1133.1 154.32 1131.16 157.989 1128.64 161.104C1126.17 164.219 1123.18 166.651 1119.68 168.4C1116.23 170.149 1112.39 171.024 1108.16 171.024C1104.71 171.024 1101.81 170.533 1099.46 169.552C1097.11 168.571 1094.98 167.248 1093.06 165.584V191.056H1073.22V103.632H1085.51C1087.98 103.632 1089.6 104.741 1090.37 106.96L1091.84 111.824ZM1177.44 102.608C1182.47 102.608 1187.06 103.397 1191.2 104.976C1195.34 106.555 1198.88 108.816 1201.82 111.76C1204.81 114.704 1207.11 118.288 1208.73 122.512C1210.4 126.693 1211.23 131.408 1211.23 136.656C1211.23 141.947 1210.4 146.725 1208.73 150.992C1207.11 155.216 1204.81 158.821 1201.82 161.808C1198.88 164.752 1195.34 167.035 1191.2 168.656C1187.06 170.235 1182.47 171.024 1177.44 171.024C1172.36 171.024 1167.73 170.235 1163.55 168.656C1159.41 167.035 1155.83 164.752 1152.8 161.808C1149.81 158.821 1147.49 155.216 1145.82 150.992C1144.2 146.725 1143.39 141.947 1143.39 136.656C1143.39 131.408 1144.2 126.693 1145.82 122.512C1147.49 118.288 1149.81 114.704 1152.8 111.76C1155.83 108.816 1159.41 106.555 1163.55 104.976C1167.73 103.397 1172.36 102.608 1177.44 102.608ZM1177.44 156.304C1182 156.304 1185.35 154.704 1187.49 151.504C1189.66 148.261 1190.75 143.355 1190.75 136.784C1190.75 130.213 1189.66 125.328 1187.49 122.128C1185.35 118.928 1182 117.328 1177.44 117.328C1172.74 117.328 1169.31 118.928 1167.13 122.128C1164.96 125.328 1163.87 130.213 1163.87 136.784C1163.87 143.355 1164.96 148.261 1167.13 151.504C1169.31 154.704 1172.74 156.304 1177.44 156.304ZM1239.52 110.8C1240.8 109.605 1242.13 108.496 1243.49 107.472C1244.86 106.448 1246.31 105.595 1247.84 104.912C1249.42 104.187 1251.11 103.632 1252.9 103.248C1254.73 102.821 1256.72 102.608 1258.85 102.608C1262.48 102.608 1265.68 103.248 1268.45 104.528C1271.27 105.765 1273.64 107.515 1275.56 109.776C1277.48 111.995 1278.93 114.661 1279.91 117.776C1280.89 120.848 1281.38 124.197 1281.38 127.824V170H1261.54V127.824C1261.54 124.581 1260.79 122.064 1259.3 120.272C1257.81 118.437 1255.61 117.52 1252.71 117.52C1250.53 117.52 1248.48 117.989 1246.56 118.928C1244.69 119.824 1242.85 121.061 1241.06 122.64V170H1221.22V103.632H1233.51C1235.98 103.632 1237.6 104.741 1238.37 106.96L1239.52 110.8ZM1334.48 121.424C1332.98 119.76 1331.36 118.608 1329.61 117.968C1327.86 117.285 1326.03 116.944 1324.11 116.944C1322.27 116.944 1320.59 117.307 1319.05 118.032C1317.52 118.757 1316.17 119.931 1315.02 121.552C1313.91 123.131 1313.04 125.2 1312.4 127.76C1311.76 130.32 1311.44 133.413 1311.44 137.04C1311.44 140.539 1311.69 143.483 1312.2 145.872C1312.72 148.261 1313.42 150.203 1314.32 151.696C1315.25 153.147 1316.36 154.192 1317.64 154.832C1318.92 155.472 1320.35 155.792 1321.93 155.792C1323.38 155.792 1324.68 155.664 1325.84 155.408C1327.03 155.109 1328.12 154.704 1329.1 154.192C1330.08 153.68 1331 153.04 1331.85 152.272C1332.75 151.461 1333.62 150.544 1334.48 149.52V121.424ZM1354.32 74.192V170H1342.03C1339.55 170 1337.93 168.891 1337.16 166.672L1335.63 161.616C1334.31 163.024 1332.92 164.304 1331.47 165.456C1330.02 166.608 1328.44 167.611 1326.73 168.464C1325.07 169.275 1323.25 169.893 1321.29 170.32C1319.37 170.789 1317.28 171.024 1315.02 171.024C1311.56 171.024 1308.36 170.256 1305.42 168.72C1302.48 167.184 1299.94 164.965 1297.8 162.064C1295.67 159.163 1293.99 155.621 1292.75 151.44C1291.55 147.216 1290.96 142.416 1290.96 137.04C1290.96 132.091 1291.64 127.504 1293 123.28C1294.37 119.013 1296.29 115.344 1298.76 112.272C1301.28 109.157 1304.29 106.725 1307.79 104.976C1311.29 103.227 1315.15 102.352 1319.37 102.352C1322.83 102.352 1325.73 102.843 1328.08 103.824C1330.42 104.805 1332.56 106.128 1334.48 107.792V74.192H1354.32ZM1409 128.848C1409 127.269 1408.79 125.733 1408.36 124.24C1407.98 122.747 1407.31 121.424 1406.38 120.272C1405.48 119.077 1404.29 118.117 1402.79 117.392C1401.3 116.667 1399.49 116.304 1397.35 116.304C1393.6 116.304 1390.65 117.392 1388.52 119.568C1386.39 121.701 1384.98 124.795 1384.3 128.848H1409ZM1384.04 140.368C1384.68 145.915 1386.37 149.947 1389.1 152.464C1391.83 154.939 1395.35 156.176 1399.66 156.176C1401.96 156.176 1403.94 155.899 1405.61 155.344C1407.27 154.789 1408.74 154.171 1410.02 153.488C1411.35 152.805 1412.54 152.187 1413.61 151.632C1414.72 151.077 1415.87 150.8 1417.06 150.8C1418.64 150.8 1419.84 151.376 1420.65 152.528L1426.41 159.632C1424.36 161.979 1422.14 163.899 1419.75 165.392C1417.41 166.843 1414.97 167.995 1412.46 168.848C1409.98 169.659 1407.49 170.213 1404.97 170.512C1402.49 170.853 1400.13 171.024 1397.86 171.024C1393.21 171.024 1388.84 170.277 1384.74 168.784C1380.69 167.248 1377.13 164.987 1374.06 162C1371.03 159.013 1368.62 155.301 1366.82 150.864C1365.07 146.427 1364.2 141.264 1364.2 135.376C1364.2 130.939 1364.95 126.736 1366.44 122.768C1367.98 118.8 1370.15 115.323 1372.97 112.336C1375.83 109.349 1379.26 106.981 1383.27 105.232C1387.33 103.483 1391.89 102.608 1396.97 102.608C1401.36 102.608 1405.37 103.291 1409 104.656C1412.67 106.021 1415.81 108.005 1418.41 110.608C1421.05 113.211 1423.1 116.411 1424.55 120.208C1426.05 123.963 1426.79 128.229 1426.79 133.008C1426.79 134.501 1426.73 135.717 1426.6 136.656C1426.47 137.595 1426.24 138.341 1425.9 138.896C1425.55 139.451 1425.09 139.835 1424.49 140.048C1423.93 140.261 1423.21 140.368 1422.31 140.368H1384.04ZM1455.02 110.8C1456.3 109.605 1457.63 108.496 1458.99 107.472C1460.36 106.448 1461.81 105.595 1463.34 104.912C1464.92 104.187 1466.61 103.632 1468.4 103.248C1470.23 102.821 1472.22 102.608 1474.35 102.608C1477.98 102.608 1481.18 103.248 1483.95 104.528C1486.77 105.765 1489.14 107.515 1491.06 109.776C1492.98 111.995 1494.43 114.661 1495.41 117.776C1496.39 120.848 1496.88 124.197 1496.88 127.824V170H1477.04V127.824C1477.04 124.581 1476.29 122.064 1474.8 120.272C1473.31 118.437 1471.11 117.52 1468.21 117.52C1466.03 117.52 1463.98 117.989 1462.06 118.928C1460.19 119.824 1458.35 121.061 1456.56 122.64V170H1436.72V103.632H1449.01C1451.48 103.632 1453.1 104.741 1453.87 106.96L1455.02 110.8ZM1532.59 171.024C1529.43 171.024 1526.64 170.576 1524.21 169.68C1521.82 168.741 1519.79 167.44 1518.12 165.776C1516.5 164.069 1515.27 162.021 1514.41 159.632C1513.56 157.243 1513.13 154.576 1513.13 151.632V117.328H1507.5C1506.48 117.328 1505.6 117.008 1504.88 116.368C1504.15 115.685 1503.79 114.704 1503.79 113.424V105.68L1514.35 103.632L1518.25 87.44C1518.77 85.392 1520.22 84.368 1522.61 84.368H1532.97V103.76H1549.42V117.328H1532.97V150.288C1532.97 151.824 1533.34 153.104 1534.06 154.128C1534.83 155.109 1535.92 155.6 1537.33 155.6C1538.05 155.6 1538.65 155.536 1539.12 155.408C1539.63 155.237 1540.06 155.067 1540.4 154.896C1540.78 154.683 1541.12 154.512 1541.42 154.384C1541.76 154.213 1542.15 154.128 1542.57 154.128C1543.17 154.128 1543.64 154.277 1543.98 154.576C1544.37 154.832 1544.75 155.259 1545.13 155.856L1551.15 165.264C1548.59 167.184 1545.71 168.635 1542.51 169.616C1539.31 170.555 1536 171.024 1532.59 171.024Z" fill="#CE2E0A"/>
<path d="M240 120C240 186.274 186.274 240 120 240C53.7258 240 0 186.274 0 120C0 53.7258 53.7258 0 120 0C186.274 0 240 53.7258 240 120ZM33.4033 120C33.4033 167.826 72.174 206.597 120 206.597C167.826 206.597 206.597 167.826 206.597 120C206.597 72.174 167.826 33.4033 120 33.4033C72.174 33.4033 33.4033 72.174 33.4033 120Z" fill="#CE2E0A"/>
<path d="M121.663 171.536C107.559 174.927 92.222 173.184 79.7977 165.741C67.3734 158.298 58.4131 146.287 54.8658 132.321C51.3185 118.355 53.4713 103.564 60.8558 91.165C68.2403 78.7662 80.2592 69.7627 94.2979 66.1132C108.337 62.4637 123.26 64.4634 135.82 71.6772C148.381 78.891 157.564 90.7354 161.371 104.634C165.178 118.532 163.301 133.36 156.149 145.893C148.997 158.425 135.631 167.629 121.663 171.536L106.679 104.68C110.534 102.101 109.686 102.155 110.38 101.466C112.061 98.5206 111.305 99.859 112.23 97.1042C112.847 93.6074 112.153 88.6092 108.298 84.2475C105.346 82.5521 100.726 81.5533 97.4265 82.411C94.127 83.2687 90.8349 85.0065 89.0994 87.9205C87.3638 90.8345 87.3404 94.5094 88.1741 97.7917C90.1786 101.235 91.8751 103.762 96.2699 105.367C102.053 106.057 101.513 106.188 106.679 104.68L121.663 171.536Z" fill="#CE2E0A"/>
<rect width="86.8202" height="32.7987" transform="translate(140.842 104.184)" fill="#CE2E0A"/>
</svg>
